<?xml version="1.0" standalone="no"?>
<!DOCTYPE svg PUBLIC "-//W3C//DTD SVG 20010904//EN"
 "http://www.w3.org/TR/2001/REC-SVG-20010904/DTD/svg10.dtd">
<svg version="1.0" xmlns="http://www.w3.org/2000/svg"
 width="500.000000pt" height="500.000000pt" viewBox="0 0 500.000000 500.000000"
 preserveAspectRatio="xMidYMid meet">
<metadata>
Created by potrace 1.16, written by Peter Selinger 2001-2019
</metadata>
<g transform="translate(0.000000,500.000000) scale(0.100000,-0.100000)"
fill="#000000" stroke="none">
<path d="M1185 3469 c-402 -50 -705 -313 -792 -686 -26 -114 -24 -309 6 -428
76 -311 306 -539 646 -641 84 -26 103 -28 280 -28 156 -1 203 2 265 18 98 25
177 58 256 106 42 26 66 35 69 27 2 -7 11 -37 21 -67 71 -229 253 -406 479
-466 94 -25 263 -29 375 -10 199 35 273 74 113 59 -222 -20 -381 1 -520 68
-212 104 -314 295 -330 617 l-6 133 -76 -3 -76 -3 -3 -103 -3 -102 -57 -45
c-73 -57 -175 -108 -277 -137 -105 -29 -315 -32 -415 -5 -216 58 -409 222
-504 428 -52 113 -67 188 -73 344 -6 181 15 294 81 428 93 192 244 326 441
393 68 23 102 28 221 32 161 5 253 -12 372 -70 122 -59 232 -191 272 -325 7
-24 17 -43 22 -43 12 0 9 51 -15 210 l-22 145 -95 47 c-199 99 -424 136 -655
107z"/>
<path d="M4405 3412 c-49 -12 -181 -16 -750 -22 -526 -5 -699 -9 -730 -19
-118 -39 -210 -111 -245 -193 -32 -76 -31 -170 4 -242 46 -93 81 -104 53 -15
-23 69 -21 153 3 206 28 62 97 127 166 154 57 23 69 24 397 27 l337 3 0 -245
0 -246 85 0 85 0 0 245 0 245 266 0 c297 0 312 -3 361 -67 19 -24 28 -50 31
-89 3 -37 9 -54 18 -54 11 0 14 32 14 165 0 188 9 174 -95 147z"/>
<path d="M1890 2550 c0 -163 1 -170 20 -170 18 0 20 7 20 59 l0 58 51 6 c66 8
96 28 108 73 24 87 -32 144 -141 144 l-58 0 0 -170z"/>
<path d="M2410 2550 l0 -170 25 0 c24 0 25 3 25 60 l0 60 30 0 c27 0 36 -8 68
-60 30 -49 42 -60 64 -60 l27 0 -41 65 -41 66 22 23 c13 13 25 42 28 65 10 76
-46 121 -152 121 l-55 0 0 -170z"/>
<path d="M3045 2706 c-42 -18 -93 -79 -101 -121 -21 -112 58 -205 172 -205 59
0 105 26 142 80 32 46 28 139 -7 188 -44 63 -136 89 -206 58z m124 -44 c37
-20 71 -73 71 -110 0 -40 -28 -91 -62 -112 -51 -33 -113 -23 -156 25 -32 35
-34 41 -30 91 5 59 25 89 73 110 41 18 64 17 104 -4z"/>
<path d="M3638 1917 l-3 -254 -28 -41 c-31 -48 -90 -82 -142 -82 -25 0 -35 -4
-35 -15 0 -13 37 -15 292 -13 222 2 292 6 296 16 2 8 -8 12 -30 13 -63 1 -121
33 -154 84 -17 26 -19 55 -24 285 l-5 255 -82 3 -81 3 -4 -254z"/>
</g>
</svg>
